<?xml version="1.0" encoding="utf-8"?>
<!-- Generator: Adobe Illustrator 25.3.0, SVG Export Plug-In . SVG Version: 6.00 Build 0)  -->
<svg version="1.1" id="Layer_1" xmlns="http://www.w3.org/2000/svg" xmlns:xlink="http://www.w3.org/1999/xlink" x="0px" y="0px"
	 viewBox="0 0 542.5 246.7" style="enable-background:new 0 0 542.5 246.7;" xml:space="preserve">
<style type="text/css">
	.st0{fill:#FFFFFF;}
	.st1{fill:#FF3D00;}
</style>
<g>
	<g>
		<g>
			<path class="st0" d="M52.9,182.5c-4.9,0-9.7-0.3-14.6-1c-4.9-0.7-9.5-1.8-13.8-3.2s-8.2-3.2-11.6-5.4c-2-1.3-3.4-2.8-4.1-4.6
				c-0.8-1.8-1-3.6-0.7-5.4c0.3-1.8,1-3.3,2.2-4.6c1.2-1.3,2.6-2.2,4.4-2.5c1.8-0.3,3.7,0.2,5.8,1.4c4.9,2.8,10,4.8,15.4,6.1
				c5.4,1.3,11.1,1.9,17.1,1.9c8.7,0,15.1-1.4,19.1-4.2c4-2.8,6-6.5,6-10.9c0-3.7-1.4-6.7-4.2-8.8c-2.8-2.1-7.7-3.9-14.5-5.3
				L41,132.3c-10.5-2.1-18.3-5.7-23.5-10.8c-5.1-5.1-7.7-11.7-7.7-20c0-5.2,1.1-10,3.3-14.2c2.2-4.3,5.3-7.9,9.4-11
				c4-3.1,8.8-5.5,14.4-7.1c5.6-1.7,11.7-2.5,18.5-2.5c6.6,0,12.9,0.8,18.9,2.4c6,1.6,11.3,3.9,16.1,7c1.8,1.2,3,2.6,3.6,4.3
				c0.6,1.7,0.7,3.4,0.4,5c-0.3,1.7-1.1,3.1-2.3,4.2c-1.2,1.2-2.7,1.9-4.6,2.1c-1.8,0.2-3.9-0.3-6.2-1.6c-4.1-2.2-8.2-3.8-12.4-4.8
				c-4.2-1-8.7-1.4-13.6-1.4c-5.1,0-9.5,0.7-13.1,2.1c-3.6,1.4-6.4,3.3-8.4,5.8c-1.9,2.5-2.9,5.5-2.9,8.9c0,3.8,1.3,6.9,4,9.2
				c2.7,2.3,7.2,4.1,13.6,5.4l18.1,3.7c10.9,2.2,19.1,5.8,24.5,10.5c5.4,4.8,8,11.2,8,19.2c0,5.1-1.1,9.7-3.2,13.9
				s-5.3,7.7-9.3,10.7c-4,3-8.9,5.3-14.5,6.9C66.3,181.7,60,182.5,52.9,182.5z"/>
		</g>
		<g>
			<path class="st0" d="M127.8,182.2c-3.4,0-6.1-0.9-7.9-2.8c-1.8-1.9-2.7-4.4-2.7-7.7V77.6c0-3.4,0.9-6,2.7-7.8
				c1.8-1.8,4.4-2.7,7.9-2.7c3.4,0,6.1,0.9,7.9,2.7c1.8,1.8,2.7,4.4,2.7,7.8v94.1c0,3.3-0.9,5.9-2.7,7.7
				C134,181.2,131.4,182.2,127.8,182.2z"/>
		</g>
		<g>
			<path class="st0" d="M174,182.2c-3.1,0-5.5-0.9-7.1-2.6c-1.7-1.7-2.5-4-2.5-7v-96c0-3.1,0.9-5.5,2.7-7.1c1.8-1.7,4.2-2.5,7.3-2.5
				c2.8,0,4.9,0.5,6.6,1.5c1.6,1,3.1,2.7,4.4,5.2l41,73h-5.3l41-73c1.3-2.4,2.8-4.2,4.3-5.2c1.5-1,3.7-1.5,6.5-1.5
				c3.1,0,5.5,0.8,7.1,2.5c1.7,1.7,2.5,4,2.5,7.1v96c0,3-0.8,5.3-2.4,7c-1.6,1.7-4,2.6-7.2,2.6c-3.1,0-5.5-0.9-7.1-2.6
				c-1.7-1.7-2.5-4-2.5-7v-74h3.6l-34.8,61.2c-1.1,1.8-2.3,3.1-3.5,4c-1.2,0.9-2.9,1.3-5,1.3c-2.1,0-3.8-0.5-5.1-1.4
				c-1.3-0.9-2.5-2.2-3.5-3.9l-35.2-61.3h4v74.1c0,3-0.8,5.3-2.4,7C179.6,181.3,177.2,182.2,174,182.2z"/>
		</g>
		<g>
			<path class="st1" d="M360.3,182.5c-11.3,0-21.1-2.4-29.6-7.2c-8.5-4.8-15-11.5-19.7-20.2c-4.6-8.7-7-18.9-7-30.6
				c0-8.8,1.3-16.8,4-23.9c2.7-7.1,6.4-13.2,11.4-18.2c4.9-5.1,10.8-8.9,17.7-11.7c6.9-2.7,14.6-4.1,23.1-4.1
				c11.4,0,21.3,2.4,29.7,7.1c8.4,4.7,14.9,11.4,19.6,20c4.6,8.6,7,18.8,7,30.5c0,8.8-1.3,16.8-4,24c-2.7,7.1-6.4,13.3-11.4,18.4
				c-4.9,5.1-10.8,9-17.7,11.7C376.6,181.1,368.9,182.5,360.3,182.5z M360.3,164.9c7.2,0,13.3-1.6,18.3-4.8c5-3.2,8.9-7.8,11.6-13.9
				c2.7-6.1,4.1-13.3,4.1-21.7c0-12.8-3-22.7-8.9-29.7c-5.9-7-14.3-10.5-25.1-10.5c-7.1,0-13.2,1.6-18.2,4.7
				c-5.1,3.1-9,7.7-11.7,13.7c-2.7,6-4.1,13.3-4.1,21.8c0,12.7,3,22.6,9,29.7C341.3,161.4,349.6,164.9,360.3,164.9z"/>
		</g>
		<g>
			<path class="st1" d="M448.1,182.2c-3.2,0-5.7-0.9-7.4-2.6c-1.7-1.7-2.6-4.2-2.6-7.3v-95c0-3.3,0.9-5.8,2.6-7.6
				c1.7-1.8,4-2.6,6.7-2.6c2.5,0,4.4,0.5,5.7,1.4c1.3,0.9,2.8,2.4,4.6,4.6l63.5,79.4h-4.3V76.8c0-3.1,0.9-5.5,2.6-7.2
				c1.7-1.7,4.2-2.6,7.4-2.6c3.2,0,5.6,0.9,7.3,2.6c1.7,1.7,2.5,4.1,2.5,7.2v95.8c0,3-0.8,5.3-2.3,7c-1.5,1.7-3.6,2.6-6.3,2.6
				c-2.5,0-4.6-0.5-6.1-1.4c-1.5-1-3.1-2.5-4.9-4.6l-63.3-79.4h4.1v75.6c0,3.2-0.8,5.6-2.5,7.3S451.3,182.2,448.1,182.2z"/>
		</g>
		<g>
			<path class="st1" d="M378.8,124.6c0,4.5-0.7,8.5-2.2,11.8c-1.5,3.3-3.6,5.8-6.3,7.5c-2.7,1.7-6,2.6-9.9,2.6
				c-5.8,0-10.3-1.9-13.6-5.8c-3.2-3.9-4.9-9.2-4.9-16.1c0-4.6,0.7-8.6,2.2-11.8c1.5-3.3,3.6-5.7,6.3-7.4c2.8-1.7,6-2.6,9.9-2.6
				c5.9,0,10.4,1.9,13.6,5.7C377.2,112.3,378.8,117.6,378.8,124.6z"/>
		</g>
	</g>
	<g>
		<g>
			<path class="st1" d="M414.2,65.7c-1.2,0-2.4-0.4-3.3-1.3c-7.5-6.7-23.6-18.2-46.8-19.5c-27.7-1.5-47.2,12.8-54.3,19
				c-2.1,1.8-5.2,1.6-7.1-0.5c-1.8-2.1-1.6-5.2,0.5-7.1c8-7,30-23,61.4-21.4c26.3,1.4,44.5,14.4,53,22c2.1,1.8,2.2,5,0.4,7.1
				C416.9,65.1,415.6,65.7,414.2,65.7z"/>
		</g>
		<g>
			<path class="st1" d="M429.9,47c-1.5,0-3.1-0.5-4.3-1.7c-9.7-8.7-30.5-23.5-60.5-25.1c-35.8-1.9-60.9,16.5-70,24.5
				c-2.7,2.4-6.8,2.1-9.2-0.6c-2.4-2.7-2.1-6.8,0.6-9.2c10.3-9,38.8-29.8,79.3-27.7c33.9,1.8,57.4,18.6,68.4,28.4
				c2.7,2.4,2.9,6.5,0.5,9.2C433.5,46.3,431.7,47,429.9,47z"/>
		</g>
		<g>
			<path class="st1" d="M360.1,214.1c-29,0-49.3-14.9-56.9-21.5c-2.1-1.8-2.3-5-0.5-7.1s5-2.3,7.1-0.5c7.1,6.2,26.5,20.4,54.3,19
				c23.2-1.2,39.3-12.7,46.8-19.5c2.1-1.8,5.2-1.7,7.1,0.4c1.8,2.1,1.7,5.2-0.4,7.1c-8.5,7.6-26.7,20.6-53,22
				C363.1,214.1,361.6,214.1,360.1,214.1z"/>
		</g>
		<g>
			<path class="st1" d="M360,241.9c-37.5,0-63.7-19.2-73.5-27.8c-2.7-2.4-3-6.5-0.6-9.2c2.4-2.7,6.5-3,9.2-0.6
				c9.1,8,34.3,26.3,70,24.5c29.9-1.6,50.7-16.4,60.5-25.1c2.7-2.4,6.8-2.2,9.2,0.5c2.4,2.7,2.2,6.8-0.5,9.2
				c-11,9.8-34.5,26.6-68.4,28.4C363.8,241.8,361.9,241.9,360,241.9z"/>
		</g>
	</g>
</g>
</svg>
